<svg width="1440" height="820" viewBox="0 0 1440 820" fill="none" xmlns="http://www.w3.org/2000/svg">
<rect width="1440" height="820" fill="#E5E5E5"/>
<g clip-path="url(#clip0_0_1)">
<rect width="1440" height="820" fill="#121214"/>
<circle cx="881" cy="-137" r="559" transform="rotate(-180 881 -137)" fill="url(#paint0_radial_0_1)"/>
<circle cx="559" cy="-137" r="559" transform="rotate(-180 559 -137)" fill="url(#paint1_radial_0_1)"/>
<path d="M688.382 226.565L685.499 226.145C685.411 226.145 685.322 226.145 685.322 226.233L684.102 227.799C684.032 227.902 684.001 228.025 684.013 228.148C684.013 228.236 683.925 228.412 683.841 228.324L682.877 228.064C682.704 228.064 682.528 228.064 682.456 228.236L678.525 233.274C678.437 233.362 678.348 233.362 678.176 233.362L676.69 232.665C676.627 232.626 676.554 232.605 676.479 232.605C676.405 232.605 676.332 232.626 676.269 232.665L675.444 233.194C675.381 233.235 675.308 233.256 675.234 233.256C675.159 233.256 675.086 233.235 675.023 233.194L674.674 233.022C674.617 232.997 674.555 232.983 674.493 232.982C674.431 232.982 674.369 232.994 674.311 233.018C674.254 233.043 674.202 233.079 674.16 233.124C674.117 233.17 674.084 233.224 674.064 233.282L673.798 234.5C673.767 234.629 673.775 234.765 673.823 234.889C673.87 235.014 673.954 235.121 674.064 235.197L674.762 235.617L676.593 236.75L677.469 237.271C677.591 237.343 677.734 237.374 677.876 237.358C678.018 237.343 678.151 237.283 678.256 237.187L679.737 235.877C679.865 235.805 680.012 235.775 680.158 235.793L680.579 236.053C680.752 236.142 680.928 236.142 681 235.965L681.783 235.268C681.837 235.214 681.905 235.177 681.98 235.161C682.055 235.146 682.132 235.152 682.204 235.18L683.34 235.705C683.428 235.734 683.521 235.741 683.612 235.725C683.703 235.71 683.789 235.673 683.862 235.617L684.388 234.92L688.319 229.882C688.492 229.617 688.403 229.269 688.054 229.269L687.229 229.084C687.052 229.084 686.968 228.824 687.052 228.664L688.45 227.01C688.643 226.834 688.555 226.565 688.382 226.565Z" fill="white"/>
<path d="M675.28 236.767C675.192 236.679 675.107 236.767 675.107 236.855L675.528 237.985V238.249L675.179 239.727C675.173 239.775 675.178 239.823 675.193 239.869C675.208 239.915 675.234 239.957 675.267 239.991L676.315 240.772C676.364 240.815 676.426 240.838 676.49 240.838C676.554 240.838 676.616 240.815 676.665 240.772L677.801 239.815C677.835 239.782 677.876 239.756 677.922 239.741C677.967 239.726 678.015 239.721 678.062 239.727L679.287 239.555C679.371 239.555 679.371 239.467 679.287 239.379L675.28 236.767Z" fill="white"/>
<path d="M674.931 240.512C674.916 240.491 674.896 240.474 674.873 240.462C674.851 240.451 674.826 240.445 674.8 240.445C674.774 240.445 674.749 240.451 674.727 240.462C674.704 240.474 674.684 240.491 674.67 240.512L673.794 240.932C673.783 240.932 673.771 240.934 673.761 240.938C673.75 240.943 673.741 240.95 673.733 240.958C673.725 240.966 673.719 240.976 673.715 240.986C673.711 240.997 673.709 241.009 673.71 241.02L671.786 245.722H671.875L672.296 245.55V245.634L670.898 247.901C670.898 247.989 670.898 247.989 670.983 247.989L675.873 243.023C675.962 243.023 675.962 242.934 675.962 242.846L676.05 241.54C676.05 241.452 676.05 241.368 675.962 241.368L674.931 240.512Z" fill="white"/>
<path d="M669.998 277L668.062 273.385L671.429 271.055L672.077 271.958L671.012 272.676C670.83 272.806 670.64 272.925 670.444 273.033C670.266 273.133 670.08 273.219 669.888 273.289L673.508 274.162L673.26 275.186L669.632 274.309C669.727 274.406 669.815 274.51 669.897 274.62C669.977 274.725 670.052 274.838 670.128 274.96L670.36 275.38L670.974 276.505L669.998 277Z" fill="#FFCD1E"/>
<path d="M654.139 263.187C654.715 262.528 655.633 262.461 656.453 263.187L658.137 264.661L654.77 268.494L653.431 267.289C652.556 266.525 652.236 265.723 652.851 265.018C652.983 264.852 653.161 264.729 653.363 264.663C653.565 264.598 653.782 264.592 653.987 264.648C653.836 264.426 653.768 264.158 653.796 263.89C653.824 263.623 653.945 263.374 654.139 263.187ZM655.342 266.387L654.66 265.795C654.24 265.421 653.878 265.316 653.659 265.568C653.44 265.82 653.591 266.152 654.025 266.525L654.703 267.117L655.342 266.387ZM654.795 263.901C654.496 264.245 654.656 264.665 655.128 265.077L655.902 265.748L656.782 264.745L656.007 264.073C655.536 263.662 655.098 263.553 654.795 263.901Z" fill="white"/>
<path d="M646.554 259.686L648.877 257.923C649.946 257.108 651.171 257.125 651.958 258.154C652.745 259.182 652.434 260.366 651.365 261.176L649.041 262.94L648.456 262.176L650.872 260.337C651.003 260.258 651.115 260.152 651.202 260.027C651.289 259.902 651.348 259.76 651.377 259.61C651.405 259.46 651.402 259.306 651.367 259.158C651.332 259.01 651.266 258.871 651.173 258.749C651.081 258.628 650.964 258.528 650.83 258.455C650.696 258.381 650.548 258.337 650.396 258.324C650.244 258.312 650.091 258.331 649.947 258.381C649.802 258.431 649.67 258.511 649.559 258.615L647.139 260.45L646.554 259.686Z" fill="white"/>
<path d="M648.949 253.754L644.437 256.126L643.987 255.286L648.507 252.901L648.949 253.754Z" fill="white"/>
<path d="M645.173 247.259L646.091 246.944L647.076 249.786L642.248 251.465L641.933 250.554L645.838 249.211L645.173 247.259Z" fill="white"/>
<path d="M642.194 239.954C643.591 239.761 644.849 240.562 645.081 242.238L645.312 243.917L640.262 244.61L640.034 242.93C639.799 241.209 640.8 240.143 642.194 239.954ZM642.324 240.907C642.119 240.925 641.921 240.985 641.74 241.083C641.559 241.181 641.401 241.314 641.274 241.475C641.147 241.637 641.054 241.822 641.002 242.02C640.949 242.219 640.938 242.425 640.969 242.628L641.087 243.51L644.218 243.09L644.096 242.212C644.071 242.009 644.005 241.813 643.902 241.636C643.798 241.459 643.66 241.304 643.495 241.182C643.33 241.06 643.142 240.973 642.942 240.925C642.742 240.878 642.535 240.872 642.333 240.907H642.324Z" fill="white"/>
<path d="M640.737 227.405L641.693 227.594L641.432 228.895L645.485 229.701L645.296 230.646L641.242 229.84L640.981 231.137L640.03 230.948L640.737 227.405Z" fill="white"/>
<path d="M643.524 219.684L648.229 221.653L647.855 222.543L645.948 221.745L645.106 223.744L647.013 224.542L646.638 225.427L641.933 223.458L642.307 222.568L644.21 223.366L645.051 221.368L643.149 220.57L643.524 219.684Z" fill="white"/>
<path d="M647 215.649L647.905 216.262L648.919 214.768L649.723 215.309L648.709 216.804L649.614 217.417L650.835 215.624L651.638 216.166L649.875 218.756L645.666 215.901L647.425 213.311L648.229 213.856L647 215.649Z" fill="white"/>
<path d="M657.173 210.305L654.05 206.278L656.533 204.364L657.127 205.128L655.41 206.455L656.083 207.32L657.514 206.211L658.112 206.98L656.672 208.092L657.935 209.721L657.173 210.305Z" fill="white"/>
<path d="M663.571 200.367L664.88 202.966C665.482 204.162 665.242 205.359 664.084 205.942C662.927 206.526 661.816 206.001 661.214 204.801L659.905 202.214L660.768 201.794L662.131 204.498C662.196 204.626 662.286 204.739 662.395 204.832C662.505 204.925 662.631 204.996 662.768 205.04C662.904 205.085 663.048 205.102 663.192 205.09C663.335 205.079 663.474 205.04 663.602 204.975C663.73 204.91 663.844 204.82 663.937 204.711C664.031 204.602 664.101 204.476 664.146 204.34C664.19 204.204 664.207 204.06 664.196 203.917C664.185 203.774 664.145 203.635 664.08 203.507L662.716 200.799L663.571 200.367Z" fill="white"/>
<path d="M670.814 197.991L671.071 198.923L669.808 199.276L670.907 203.251L669.973 203.503L668.878 199.532L667.616 199.884L667.355 198.948L670.814 197.991Z" fill="white"/>
<path d="M678.862 197L679.072 199.901C679.169 201.236 678.483 202.248 677.191 202.34C675.899 202.433 675.086 201.53 674.981 200.191L674.771 197.294L675.735 197.223L675.949 200.245C675.942 200.399 675.968 200.553 676.024 200.697C676.081 200.84 676.167 200.97 676.278 201.078C676.389 201.186 676.521 201.269 676.666 201.322C676.812 201.375 676.967 201.397 677.121 201.386C677.275 201.375 677.425 201.331 677.561 201.258C677.698 201.185 677.817 201.084 677.911 200.961C678.005 200.839 678.072 200.698 678.107 200.548C678.143 200.397 678.146 200.241 678.117 200.09L677.898 197.067L678.862 197Z" fill="white"/>
<path d="M685.125 202.53L684.211 200.699L683.635 200.628L683.42 202.307L682.46 202.181L683.113 197.143L684.91 197.374C686.219 197.542 686.732 198.327 686.594 199.305C686.553 199.662 686.399 199.996 686.155 200.259C685.91 200.522 685.587 200.7 685.234 200.766L686.278 202.685L685.125 202.53ZM683.761 199.666L684.721 199.788C684.822 199.81 684.927 199.812 685.029 199.793C685.131 199.774 685.229 199.734 685.315 199.677C685.402 199.62 685.476 199.546 685.534 199.46C685.592 199.374 685.631 199.277 685.651 199.175C685.664 199.07 685.654 198.963 685.623 198.862C685.592 198.76 685.539 198.667 685.468 198.588C685.398 198.508 685.311 198.445 685.214 198.401C685.117 198.358 685.012 198.335 684.906 198.335L683.946 198.214L683.761 199.666Z" fill="white"/>
<path d="M691.493 199.796L691.152 200.833L692.869 201.4L692.566 202.319L690.849 201.753L690.508 202.79L692.57 203.47L692.28 204.389L689.304 203.407L690.899 198.574L693.879 199.553L693.576 200.476L691.493 199.796Z" fill="white"/>
<path d="M705.033 204.641L705.311 208.73L701.266 209.469L701.047 208.374L702.31 208.155C702.541 208.113 702.764 208.08 702.975 208.063C703.178 208.046 703.382 208.046 703.585 208.063L700.639 205.779L701.287 204.939L704.233 207.223C704.186 207.096 704.148 206.966 704.12 206.833C704.087 206.695 704.065 206.554 704.052 206.413C704.052 206.274 704.018 206.115 704.006 205.947L703.909 204.687L705.033 204.641Z" fill="#FFCD1E"/>
<path d="M711.893 223.156L712.954 221.409L712.71 220.885L711.17 221.598L710.749 220.725L715.378 218.584L716.145 220.221C716.7 221.414 716.309 222.266 715.416 222.681C715.092 222.838 714.726 222.886 714.373 222.819C714.019 222.753 713.696 222.575 713.451 222.312L712.382 224.218L711.893 223.156ZM713.577 220.477L713.998 221.351C714.033 221.448 714.088 221.538 714.159 221.614C714.23 221.69 714.315 221.751 714.41 221.794C714.505 221.837 714.608 221.86 714.712 221.862C714.816 221.865 714.92 221.846 715.016 221.808C715.111 221.762 715.196 221.697 715.263 221.617C715.331 221.536 715.381 221.442 715.41 221.341C715.438 221.24 715.445 221.134 715.429 221.03C715.414 220.926 715.376 220.826 715.32 220.738L714.899 219.864L713.577 220.477Z" fill="white"/>
<path d="M716.965 231.276C716.453 231.388 715.919 231.346 715.431 231.156C714.942 230.966 714.521 230.636 714.221 230.207C713.92 229.779 713.753 229.271 713.741 228.749C713.729 228.226 713.873 227.711 714.153 227.269C714.434 226.828 714.84 226.479 715.319 226.267C715.798 226.055 716.329 225.989 716.846 226.077C717.363 226.166 717.842 226.405 718.222 226.764C718.603 227.124 718.868 227.588 718.985 228.098C719.14 228.786 719.014 229.508 718.635 230.104C718.256 230.7 717.655 231.121 716.965 231.276ZM716.75 230.335C717.074 230.258 717.367 230.088 717.593 229.845C717.819 229.602 717.968 229.298 718.021 228.97C718.074 228.643 718.029 228.308 717.891 228.006C717.753 227.705 717.529 227.45 717.247 227.275C716.965 227.101 716.637 227.013 716.305 227.024C715.973 227.034 715.651 227.142 715.381 227.335C715.111 227.527 714.903 227.795 714.785 228.105C714.667 228.415 714.644 228.753 714.717 229.076C714.766 229.293 714.857 229.498 714.986 229.68C715.115 229.862 715.279 230.016 715.468 230.134C715.657 230.252 715.868 230.331 716.088 230.367C716.308 230.403 716.533 230.395 716.75 230.344V230.335Z" fill="white"/>
<path d="M716.17 238.619L715.294 239.001C714.894 238.55 714.668 237.973 714.654 237.372C714.649 237.022 714.713 236.674 714.842 236.348C714.971 236.023 715.163 235.726 715.407 235.474C715.652 235.223 715.943 235.022 716.265 234.883C716.588 234.744 716.934 234.669 717.285 234.664C717.636 234.658 717.985 234.722 718.311 234.851C718.637 234.979 718.935 235.171 719.187 235.415C719.439 235.659 719.641 235.949 719.78 236.271C719.92 236.592 719.994 236.938 720 237.288C720.009 237.888 719.803 238.471 719.419 238.933L718.531 238.581C718.857 238.243 719.035 237.79 719.028 237.321C719.011 237.049 718.928 236.785 718.787 236.552C718.645 236.319 718.449 236.123 718.214 235.983C717.98 235.842 717.715 235.761 717.442 235.746C717.169 235.73 716.896 235.781 716.648 235.895C716.399 236.008 716.182 236.18 716.015 236.396C715.848 236.611 715.736 236.865 715.689 237.133C715.642 237.402 715.661 237.678 715.745 237.937C715.828 238.197 715.974 238.432 716.17 238.623V238.619Z" fill="white"/>
<path d="M713.665 246.083L713.905 244.887L716.464 243.447L714.276 243.027L714.465 242.082L719.469 243.069L719.28 244.013L717.209 243.594L718.935 245.76L718.695 246.952L716.725 244.358L713.665 246.083Z" fill="white"/>
<path d="M716.212 251.335L715.197 250.916L714.511 252.595L713.615 252.23L714.296 250.55L713.286 250.131L712.445 252.133L711.544 251.768L712.727 248.871L717.453 250.794L716.266 253.691L715.37 253.325L716.212 251.335Z" fill="white"/>
<path d="M712.483 260.27L711.683 259.732L712.403 258.62L708.93 256.386L709.452 255.58L712.925 257.814L713.648 256.701L714.465 257.226L712.483 260.27Z" fill="white"/>
<path d="M704.679 263.796C704.018 263.166 703.976 262.163 704.906 261.197C705.167 260.915 705.483 260.689 705.835 260.534C706.187 260.38 706.567 260.3 706.952 260.299L707.23 261.235C706.928 261.227 706.627 261.28 706.346 261.391C706.066 261.502 705.811 261.669 705.597 261.882C705.134 262.365 705.045 262.814 705.302 263.062C705.559 263.309 705.942 263.171 706.472 262.763C707.63 261.878 708.362 261.899 708.918 262.432C709.473 262.965 709.595 264.027 708.72 264.951C708.286 265.416 707.702 265.714 707.07 265.79L706.75 264.921C707.23 264.861 707.676 264.639 708.013 264.292C708.37 263.922 708.577 263.498 708.282 263.213C707.987 262.927 707.735 263.095 707.137 263.536C706.258 264.17 705.466 264.552 704.679 263.796Z" fill="white"/>
<path d="M702.802 268.658L702.171 267.768L700.693 268.809L700.134 268.02L701.611 266.978L700.98 266.088L699.204 267.348L698.644 266.554L701.207 264.749L704.153 268.901L701.59 270.711L701.03 269.917L702.802 268.658Z" fill="white"/>
<path d="M693.353 270.341L695.31 269.472L695.26 268.435L696.253 268.016L696.409 273.52L695.609 273.872L691.623 270.064L692.612 269.644L693.353 270.341ZM694.085 271.076L695.466 272.453L695.365 270.509L694.085 271.076Z" fill="white"/>
<path d="M687.296 276.433L687.069 275.489L688.361 275.182L687.406 271.173L688.344 270.95L689.3 274.96L690.592 274.653L690.819 275.594L687.296 276.433Z" fill="white"/>
<rect x="541" y="140" width="358" height="540" fill="#202024"/>
<mask id="mask0_0_1" style="mask-type:alpha" maskUnits="userSpaceOnUse" x="541" y="140" width="358" height="540">
<rect x="541" y="140" width="358" height="540" fill="#202024"/>
</mask>
<g mask="url(#mask0_0_1)">
<path d="M899 201.492V-256.824L719.5 -360L540 -256.824V201.492L719.5 304.674L899 201.492Z" fill="url(#paint2_linear_0_1)"/>
<g style="mix-blend-mode:luminosity" opacity="0.4">
<path d="M541.801 99.3496V202.159L631.101 253.569L720.4 202.159V99.3496L631.101 47.9399L541.801 99.3496Z" fill="url(#paint3_linear_0_1)"/>
<path d="M541.801 -3.46506V99.3445L631.101 150.754L720.4 99.3445V-3.46506L631.101 -54.8747L541.801 -3.46506Z" fill="url(#paint4_linear_0_1)"/>
<path d="M720.4 202.159V99.3492L809.7 47.9395L899 99.3492V202.159L809.7 253.568L720.4 202.159Z" fill="url(#paint5_linear_0_1)"/>
<path d="M899 -3.46506V99.3445L809.7 150.754L720.4 99.3445V-3.46506L809.7 -54.8747L899 -3.46506Z" fill="url(#paint6_linear_0_1)"/>
<path d="M809.7 253.59V150.781L720.4 99.3711L631.101 150.781V253.59L720.4 305L809.7 253.59Z" fill="url(#paint7_linear_0_1)"/>
</g>
</g>
<rect x="680" y="156" width="80" height="8" fill="#121214"/>
<rect x="688" width="64" height="158" fill="url(#paint8_linear_0_1)"/>
</g>
<defs>
<radialGradient id="paint0_radial_0_1" cx="0" cy="0" r="1" gradientUnits="userSpaceOnUse" gradientTransform="translate(881 -137) rotate(90) scale(559)">
<stop stop-color="#FFC323"/>
<stop offset="1" stop-color="#121214" stop-opacity="0"/>
</radialGradient>
<radialGradient id="paint1_radial_0_1" cx="0" cy="0" r="1" gradientUnits="userSpaceOnUse" gradientTransform="translate(559 -137) rotate(90) scale(559)">
<stop stop-color="#FF3D6E"/>
<stop offset="1" stop-color="#121214" stop-opacity="0"/>
</radialGradient>
<linearGradient id="paint2_linear_0_1" x1="540" y1="-344.234" x2="979.976" y2="-283.679" gradientUnits="userSpaceOnUse">
<stop stop-color="#FF008E"/>
<stop offset="1" stop-color="#FFCD1E"/>
</linearGradient>
<linearGradient id="paint3_linear_0_1" x1="631.101" y1="248.84" x2="542.185" y2="97.1039" gradientUnits="userSpaceOnUse">
<stop stop-color="#8257E5"/>
<stop offset="1" stop-color="#FF008E" stop-opacity="0"/>
</linearGradient>
<linearGradient id="paint4_linear_0_1" x1="631.101" y1="146.026" x2="542.185" y2="-5.71074" gradientUnits="userSpaceOnUse">
<stop stop-color="#8257E5"/>
<stop offset="1" stop-color="#FF008E" stop-opacity="0"/>
</linearGradient>
<linearGradient id="paint5_linear_0_1" x1="899" y1="207.937" x2="720.676" y2="100.328" gradientUnits="userSpaceOnUse">
<stop stop-color="#FF008E" stop-opacity="0"/>
<stop offset="1" stop-color="#FFCD1E"/>
</linearGradient>
<linearGradient id="paint6_linear_0_1" x1="809.7" y1="146.026" x2="898.615" y2="-5.71073" gradientUnits="userSpaceOnUse">
<stop stop-color="#8257E5"/>
<stop offset="1" stop-color="#FF008E" stop-opacity="0"/>
</linearGradient>
<linearGradient id="paint7_linear_0_1" x1="720.4" y1="104.099" x2="809.316" y2="255.836" gradientUnits="userSpaceOnUse">
<stop stop-color="#8257E5"/>
<stop offset="1" stop-color="#FF008E" stop-opacity="0"/>
</linearGradient>
<linearGradient id="paint8_linear_0_1" x1="649.5" y1="4.93019e-08" x2="782" y2="158" gradientUnits="userSpaceOnUse">
<stop stop-color="#FF008E"/>
<stop offset="1" stop-color="#FFCD1E"/>
</linearGradient>
<clipPath id="clip0_0_1">
<rect width="1440" height="820" fill="white"/>
</clipPath>
</defs>
</svg>
